# xmcd
#
# Track frame offsets:
#	150
#	16564
#	29523
#	56177
#	75740
#	96799
#	110514
#	124015
#	138061
#	152627
#	167678
#	182014
#	195319
#	215065
#	230677
#	247398
#	259528
#
# Disc length: 4299 seconds
#
# Revision: 1
# Processed by: cddbd v1.5.1PL2 Copyright (c) Steve Scherf et al.
# Submitted via: EasyCDDAExtractor 9.0.0.1
#
DISCID=e310c911
DTITLE=Alice Cooper - St George's Theater Staten Island 30-08-81
DYEAR=1981
DGENRE=Hard Rock
TTITLE0=Who Do You Think We Are
TTITLE1=Model Citizen
TTITLE2=Go To Hell
TTITLE3=Guilty
TTITLE4=Eighteen
TTITLE5=Cold Ethyl
TTITLE6=Only Women Bleed
TTITLE7=No More Mr Nice Guy
TTITLE8=Clones (We Are)
TTITLE9=Under My Wheels
TTITLE10=I Never Cry
TTITLE11=Grim Facts
TTITLE12=Guilty
TTITLE13=Billion Dollar Babies
TTITLE14=Generation Landslide
TTITLE15=Who Do You Think We Are
TTITLE16=School's Out
EXTD=
EXTT0=
EXTT1=
EXTT2=
EXTT3=
EXTT4=
EXTT5=
EXTT6=
EXTT7=
EXTT8=
EXTT9=
EXTT10=
EXTT11=
EXTT12=
EXTT13=
EXTT14=
EXTT15=
EXTT16=
PLAYORDER=
